# Blender 4.1.1
# www.blender.org
mtllib LPCapsule.mtl
o Roundcube
v 0.288675 -0.816181 -0.288675
v 0.096225 -0.874450 -0.346944
v -0.096225 -0.874450 -0.346944
v 0.346944 -0.623731 -0.346944
v 0.115648 -0.643154 -0.472494
v -0.115648 -0.643154 -0.472494
v 0.346944 0.623731 -0.346944
v 0.115648 0.643154 -0.472494
v -0.115648 0.643154 -0.472494
v -0.288675 -0.816181 -0.288675
v -0.346944 -0.874450 -0.096225
v -0.346944 -0.874450 0.096225
v -0.346944 -0.623731 -0.346944
v -0.472494 -0.643154 -0.115648
v -0.472494 -0.643154 0.115648
v -0.346944 0.623731 -0.346944
v -0.472494 0.643154 -0.115648
v -0.472494 0.643154 0.115648
v -0.288675 -0.816181 0.288675
v -0.096225 -0.874450 0.346944
v 0.096225 -0.874450 0.346944
v -0.346944 -0.623731 0.346944
v -0.115648 -0.643154 0.472494
v 0.115648 -0.643154 0.472494
v -0.346944 0.623731 0.346944
v -0.115648 0.643154 0.472494
v 0.115648 0.643154 0.472494
v 0.288675 -0.816181 0.288675
v 0.346944 -0.874450 0.096225
v 0.346944 -0.874450 -0.096225
v 0.346944 -0.623731 0.346944
v 0.472494 -0.643154 0.115648
v 0.472494 -0.643154 -0.115648
v 0.346944 0.623731 0.346944
v 0.472494 0.643154 0.115648
v 0.472494 0.643154 -0.115648
v 0.115648 -1.000000 0.115648
v -0.115648 -1.000000 0.115648
v 0.115648 -1.000000 -0.115648
v -0.115648 -1.000000 -0.115648
v 0.288675 0.816181 -0.288675
v 0.096225 0.874450 -0.346944
v -0.096225 0.874450 -0.346944
v -0.288675 0.816181 -0.288675
v 0.346944 0.874450 -0.096225
v 0.115648 1.000000 -0.115648
v -0.115648 1.000000 -0.115648
v -0.346944 0.874450 -0.096225
v 0.346944 0.874450 0.096225
v 0.115648 1.000000 0.115648
v -0.115648 1.000000 0.115648
v -0.346944 0.874450 0.096225
v 0.288675 0.816181 0.288675
v 0.096225 0.874450 0.346944
v -0.096225 0.874450 0.346944
v -0.288675 0.816181 0.288675
vn 0.5774 -0.5774 -0.5774
vn 0.2078 -0.6917 -0.6917
vn -0.2078 -0.6917 -0.6917
vn 0.6917 -0.2078 -0.6917
vn 0.2349 -0.2349 -0.9432
vn -0.2349 -0.2349 -0.9432
vn 0.6917 0.2078 -0.6917
vn 0.2349 0.2349 -0.9432
vn -0.2349 0.2349 -0.9432
vn -0.5774 -0.5774 -0.5774
vn -0.6917 -0.6917 -0.2078
vn -0.6917 -0.6917 0.2078
vn -0.6917 -0.2078 -0.6917
vn -0.9432 -0.2349 -0.2349
vn -0.9432 -0.2349 0.2349
vn -0.6917 0.2078 -0.6917
vn -0.9432 0.2349 -0.2349
vn -0.9432 0.2349 0.2349
vn -0.5774 -0.5774 0.5774
vn -0.2078 -0.6917 0.6917
vn 0.2078 -0.6917 0.6917
vn -0.6917 -0.2078 0.6917
vn -0.2349 -0.2349 0.9432
vn 0.2349 -0.2349 0.9432
vn -0.6917 0.2078 0.6917
vn -0.2349 0.2349 0.9432
vn 0.2349 0.2349 0.9432
vn 0.5774 -0.5774 0.5774
vn 0.6917 -0.6917 0.2078
vn 0.6917 -0.6917 -0.2078
vn 0.6917 -0.2078 0.6917
vn 0.9432 -0.2349 0.2349
vn 0.9432 -0.2349 -0.2349
vn 0.6917 0.2078 0.6917
vn 0.9432 0.2349 0.2349
vn 0.9432 0.2349 -0.2349
vn 0.2349 -0.9432 0.2349
vn -0.2349 -0.9432 0.2349
vn 0.2349 -0.9432 -0.2349
vn -0.2349 -0.9432 -0.2349
vn 0.5774 0.5774 -0.5774
vn 0.2078 0.6917 -0.6917
vn -0.2078 0.6917 -0.6917
vn -0.5774 0.5774 -0.5774
vn 0.6917 0.6917 -0.2078
vn 0.2349 0.9432 -0.2349
vn -0.2349 0.9432 -0.2349
vn -0.6917 0.6917 -0.2078
vn 0.6917 0.6917 0.2078
vn 0.2349 0.9432 0.2349
vn -0.2349 0.9432 0.2349
vn -0.6917 0.6917 0.2078
vn 0.5774 0.5774 0.5774
vn 0.2078 0.6917 0.6917
vn -0.2078 0.6917 0.6917
vn -0.5774 0.5774 0.5774
s 1
f 1//1 2//2 5//5 4//4
f 2//2 3//3 6//6 5//5
f 3//3 10//10 13//13 6//6
f 4//4 5//5 8//8 7//7
f 5//5 6//6 9//9 8//8
f 6//6 13//13 16//16 9//9
f 7//7 8//8 42//42 41//41
f 8//8 9//9 43//43 42//42
f 9//9 16//16 44//44 43//43
f 10//10 11//11 14//14 13//13
f 11//11 12//12 15//15 14//14
f 12//12 19//19 22//22 15//15
f 13//13 14//14 17//17 16//16
f 14//14 15//15 18//18 17//17
f 15//15 22//22 25//25 18//18
f 16//16 17//17 48//48 44//44
f 17//17 18//18 52//52 48//48
f 18//18 25//25 56//56 52//52
f 19//19 20//20 23//23 22//22
f 20//20 21//21 24//24 23//23
f 21//21 28//28 31//31 24//24
f 22//22 23//23 26//26 25//25
f 23//23 24//24 27//27 26//26
f 24//24 31//31 34//34 27//27
f 25//25 26//26 55//55 56//56
f 26//26 27//27 54//54 55//55
f 27//27 34//34 53//53 54//54
f 28//28 29//29 32//32 31//31
f 29//29 30//30 33//33 32//32
f 30//30 1//1 4//4 33//33
f 31//31 32//32 35//35 34//34
f 32//32 33//33 36//36 35//35
f 33//33 4//4 7//7 36//36
f 34//34 35//35 49//49 53//53
f 35//35 36//36 45//45 49//49
f 36//36 7//7 41//41 45//45
f 28//28 21//21 37//37 29//29
f 21//21 20//20 38//38 37//37
f 20//20 19//19 12//12 38//38
f 29//29 37//37 39//39 30//30
f 37//37 38//38 40//40 39//39
f 38//38 12//12 11//11 40//40
f 30//30 39//39 2//2 1//1
f 39//39 40//40 3//3 2//2
f 40//40 11//11 10//10 3//3
f 41//41 42//42 46//46 45//45
f 42//42 43//43 47//47 46//46
f 43//43 44//44 48//48 47//47
f 45//45 46//46 50//50 49//49
f 46//46 47//47 51//51 50//50
f 47//47 48//48 52//52 51//51
f 49//49 50//50 54//54 53//53
f 50//50 51//51 55//55 54//54
f 51//51 52//52 56//56 55//55
