# Blender 4.1.1
# www.blender.org
mtllib LPSphere.mtl
o Sphere
v 0.000000 0.382683 -0.923880
v 0.000000 0.000000 -1.000000
v 0.000000 -0.382683 -0.923880
v 0.000000 -0.923880 -0.382683
v 0.146447 0.923880 -0.353553
v 0.270598 0.707107 -0.653281
v 0.353553 0.382683 -0.853553
v 0.382683 0.000000 -0.923880
v 0.353553 -0.382683 -0.853553
v 0.270598 -0.707107 -0.653281
v 0.146447 -0.923880 -0.353553
v 0.270598 0.923880 -0.270598
v 0.500000 0.707107 -0.500000
v 0.653282 0.382683 -0.653281
v 0.707107 0.000000 -0.707107
v 0.653282 -0.382683 -0.653281
v 0.500000 -0.707107 -0.500000
v 0.270598 -0.923880 -0.270598
v 0.353553 0.923880 -0.146447
v 0.653281 0.707107 -0.270598
v 0.853553 0.382683 -0.353553
v 0.923880 0.000000 -0.382683
v 0.853553 -0.382683 -0.353553
v 0.653281 -0.707107 -0.270598
v 0.353553 -0.923880 -0.146447
v 0.382683 0.923880 0.000000
v 0.707107 0.707107 0.000000
v 0.923880 0.382683 0.000000
v 1.000000 0.000000 0.000000
v 0.923880 -0.382683 0.000000
v 0.707107 -0.707107 0.000000
v 0.382683 -0.923880 0.000000
v 0.353553 0.923880 0.146447
v 0.653281 0.707107 0.270598
v 0.853553 0.382683 0.353554
v 0.923879 0.000000 0.382684
v 0.853553 -0.382683 0.353554
v 0.653281 -0.707107 0.270598
v 0.353553 -0.923880 0.146447
v 0.270598 0.923880 0.270598
v 0.500000 0.707107 0.500000
v 0.653281 0.382683 0.653282
v 0.707107 0.000000 0.707107
v 0.653281 -0.382683 0.653282
v 0.500000 -0.707107 0.500000
v 0.270598 -0.923880 0.270598
v 0.146447 0.923880 0.353553
v 0.270598 0.707107 0.653281
v 0.353553 0.382683 0.853553
v 0.382683 0.000000 0.923880
v 0.353553 -0.382683 0.853553
v 0.270598 -0.707107 0.653281
v 0.146447 -0.923880 0.353553
v -0.000000 0.923880 0.382683
v -0.000000 0.707107 0.707107
v -0.000000 0.382683 0.923879
v -0.000000 0.000000 1.000000
v -0.000000 -0.382683 0.923879
v -0.000000 -0.707107 0.707107
v -0.000000 -0.923880 0.382683
v 0.000000 -1.000000 0.000000
v 0.000000 1.000000 0.000000
v -0.146447 0.923880 0.353553
v -0.270598 0.707107 0.653281
v -0.353554 0.382683 0.853553
v -0.382684 0.000000 0.923879
v -0.353554 -0.382683 0.853553
v -0.270598 -0.707107 0.653281
v -0.146447 -0.923880 0.353553
v -0.270598 0.923880 0.270598
v -0.500000 0.707107 0.500000
v -0.653282 0.382683 0.653281
v -0.707107 0.000000 0.707106
v -0.653282 -0.382683 0.653281
v -0.500000 -0.707107 0.500000
v -0.270598 -0.923880 0.270598
v -0.353553 0.923880 0.146446
v -0.653281 0.707107 0.270598
v -0.853553 0.382683 0.353553
v -0.923880 0.000000 0.382683
v -0.853553 -0.382683 0.353553
v -0.653281 -0.707107 0.270598
v -0.353553 -0.923880 0.146446
v -0.382683 0.923880 -0.000000
v -0.707107 0.707107 -0.000000
v -0.923879 0.382683 -0.000000
v -1.000000 0.000000 -0.000001
v -0.923879 -0.382683 -0.000000
v -0.707107 -0.707107 -0.000000
v -0.382683 -0.923880 -0.000000
v -0.353553 0.923880 -0.146447
v -0.653281 0.707107 -0.270598
v -0.853553 0.382683 -0.353554
v -0.923879 0.000000 -0.382684
v -0.853553 -0.382683 -0.353554
v -0.653281 -0.707107 -0.270598
v -0.353553 -0.923880 -0.146447
v -0.270598 0.923880 -0.270598
v -0.500000 0.707107 -0.500000
v -0.653281 0.382683 -0.653282
v -0.707106 0.000000 -0.707107
v -0.653281 -0.382683 -0.653282
v -0.500000 -0.707107 -0.500000
v -0.270598 -0.923880 -0.270598
v -0.146446 0.923880 -0.353554
v -0.270598 0.707107 -0.653281
v -0.353553 0.382683 -0.853553
v -0.382683 0.000000 -0.923880
v -0.353553 -0.382683 -0.853553
v -0.270598 -0.707107 -0.653281
v -0.146446 -0.923880 -0.353554
v 0.000000 0.923880 -0.382683
v 0.000000 0.707107 -0.707107
v 0.000000 -0.707107 -0.707107
vn -0.0000 0.3744 -0.9273
vn -0.0000 -0.0000 -1.0000
vn -0.0000 -0.3744 -0.9273
vn -0.0000 -0.9152 -0.4031
vn 0.1543 0.9152 -0.3724
vn 0.2751 0.6952 -0.6641
vn 0.3549 0.3744 -0.8567
vn 0.3827 -0.0000 -0.9239
vn 0.3549 -0.3744 -0.8567
vn 0.2751 -0.6952 -0.6641
vn 0.1543 -0.9152 -0.3724
vn 0.2850 0.9152 -0.2850
vn 0.5083 0.6952 -0.5083
vn 0.6557 0.3744 -0.6557
vn 0.7071 -0.0000 -0.7071
vn 0.6557 -0.3744 -0.6557
vn 0.5083 -0.6952 -0.5083
vn 0.2850 -0.9152 -0.2850
vn 0.3724 0.9152 -0.1543
vn 0.6641 0.6952 -0.2751
vn 0.8567 0.3744 -0.3549
vn 0.9239 -0.0000 -0.3827
vn 0.8567 -0.3744 -0.3549
vn 0.6641 -0.6952 -0.2751
vn 0.3724 -0.9152 -0.1543
vn 0.4031 0.9152 -0.0000
vn 0.7189 0.6952 -0.0000
vn 0.9273 0.3744 -0.0000
vn 1.0000 -0.0000 -0.0000
vn 0.9273 -0.3744 -0.0000
vn 0.7189 -0.6952 -0.0000
vn 0.4031 -0.9152 -0.0000
vn 0.3724 0.9152 0.1543
vn 0.6641 0.6952 0.2751
vn 0.8567 0.3744 0.3549
vn 0.9239 -0.0000 0.3827
vn 0.8567 -0.3744 0.3549
vn 0.6641 -0.6952 0.2751
vn 0.3724 -0.9152 0.1543
vn 0.2850 0.9152 0.2850
vn 0.5083 0.6952 0.5083
vn 0.6557 0.3744 0.6557
vn 0.7071 -0.0000 0.7071
vn 0.6557 -0.3744 0.6557
vn 0.5083 -0.6952 0.5083
vn 0.2850 -0.9152 0.2850
vn 0.1543 0.9152 0.3724
vn 0.2751 0.6952 0.6641
vn 0.3549 0.3744 0.8567
vn 0.3827 -0.0000 0.9239
vn 0.3549 -0.3744 0.8567
vn 0.2751 -0.6952 0.6641
vn 0.1543 -0.9152 0.3724
vn -0.0000 0.9152 0.4031
vn -0.0000 0.6952 0.7189
vn -0.0000 0.3744 0.9273
vn -0.0000 -0.0000 1.0000
vn -0.0000 -0.3744 0.9273
vn -0.0000 -0.6952 0.7189
vn -0.0000 -0.9152 0.4031
vn -0.0000 -1.0000 -0.0000
vn -0.0000 1.0000 -0.0000
vn -0.1543 0.9152 0.3724
vn -0.2751 0.6952 0.6641
vn -0.3549 0.3744 0.8567
vn -0.3827 -0.0000 0.9239
vn -0.3549 -0.3744 0.8567
vn -0.2751 -0.6952 0.6641
vn -0.1543 -0.9152 0.3724
vn -0.2850 0.9152 0.2850
vn -0.5083 0.6952 0.5083
vn -0.6557 0.3744 0.6557
vn -0.7071 -0.0000 0.7071
vn -0.6557 -0.3744 0.6557
vn -0.5083 -0.6952 0.5083
vn -0.2850 -0.9152 0.2850
vn -0.3724 0.9152 0.1543
vn -0.6641 0.6952 0.2751
vn -0.8567 0.3744 0.3549
vn -0.9239 -0.0000 0.3827
vn -0.8567 -0.3744 0.3549
vn -0.6641 -0.6952 0.2751
vn -0.3724 -0.9152 0.1543
vn -0.4031 0.9152 -0.0000
vn -0.7189 0.6952 -0.0000
vn -0.9273 0.3744 -0.0000
vn -1.0000 -0.0000 -0.0000
vn -0.9273 -0.3744 -0.0000
vn -0.7189 -0.6952 -0.0000
vn -0.4031 -0.9152 -0.0000
vn -0.3724 0.9152 -0.1543
vn -0.6641 0.6952 -0.2751
vn -0.8567 0.3744 -0.3549
vn -0.9239 -0.0000 -0.3827
vn -0.8567 -0.3744 -0.3549
vn -0.6641 -0.6952 -0.2751
vn -0.3724 -0.9152 -0.1543
vn -0.2850 0.9152 -0.2850
vn -0.5083 0.6952 -0.5083
vn -0.6557 0.3744 -0.6557
vn -0.7071 -0.0000 -0.7071
vn -0.6557 -0.3744 -0.6557
vn -0.5083 -0.6952 -0.5083
vn -0.2850 -0.9152 -0.2850
vn -0.1543 0.9152 -0.3724
vn -0.2751 0.6952 -0.6641
vn -0.3549 0.3744 -0.8567
vn -0.3827 -0.0000 -0.9239
vn -0.3549 -0.3744 -0.8567
vn -0.2751 -0.6952 -0.6641
vn -0.1543 -0.9152 -0.3724
vn -0.0000 0.9152 -0.4031
vn -0.0000 0.6952 -0.7189
vn -0.0000 -0.6952 -0.7189
vt 0.750000 0.375000
vt 0.750000 0.500000
vt 0.687500 0.500000
vt 0.687500 0.375000
vt 0.750000 0.625000
vt 0.750000 0.750000
vt 0.687500 0.750000
vt 0.687500 0.625000
vt 0.750000 0.875000
vt 0.718750 1.000000
vt 0.687500 0.875000
vt 0.718750 0.000000
vt 0.750000 0.125000
vt 0.687500 0.125000
vt 0.750000 0.250000
vt 0.687500 0.250000
vt 0.656250 0.000000
vt 0.625000 0.125000
vt 0.625000 0.375000
vt 0.625000 0.250000
vt 0.625000 0.625000
vt 0.625000 0.500000
vt 0.625000 0.875000
vt 0.625000 0.750000
vt 0.656250 1.000000
vt 0.562500 0.875000
vt 0.562500 0.750000
vt 0.562500 0.250000
vt 0.562500 0.125000
vt 0.562500 0.500000
vt 0.562500 0.375000
vt 0.562500 0.625000
vt 0.593750 1.000000
vt 0.593750 0.000000
vt 0.500000 0.250000
vt 0.500000 0.125000
vt 0.500000 0.500000
vt 0.500000 0.375000
vt 0.500000 0.750000
vt 0.500000 0.625000
vt 0.531250 1.000000
vt 0.500000 0.875000
vt 0.531250 0.000000
vt 0.468750 1.000000
vt 0.437500 0.875000
vt 0.468750 0.000000
vt 0.437500 0.125000
vt 0.437500 0.375000
vt 0.437500 0.250000
vt 0.437500 0.625000
vt 0.437500 0.500000
vt 0.437500 0.750000
vt 0.375000 0.375000
vt 0.375000 0.250000
vt 0.375000 0.625000
vt 0.375000 0.500000
vt 0.375000 0.875000
vt 0.375000 0.750000
vt 0.375000 0.125000
vt 0.406250 1.000000
vt 0.406250 0.000000
vt 0.312500 0.250000
vt 0.312500 0.125000
vt 0.312500 0.500000
vt 0.312500 0.375000
vt 0.312500 0.750000
vt 0.312500 0.625000
vt 0.343750 1.000000
vt 0.312500 0.875000
vt 0.343750 0.000000
vt 0.250000 0.500000
vt 0.250000 0.375000
vt 0.250000 0.750000
vt 0.250000 0.625000
vt 0.281250 1.000000
vt 0.250000 0.875000
vt 0.281250 0.000000
vt 0.250000 0.125000
vt 0.250000 0.250000
vt 0.218750 0.000000
vt 0.187500 0.125000
vt 0.187500 0.375000
vt 0.187500 0.250000
vt 0.187500 0.625000
vt 0.187500 0.500000
vt 0.187500 0.875000
vt 0.187500 0.750000
vt 0.218750 1.000000
vt 0.125000 0.625000
vt 0.125000 0.500000
vt 0.125000 0.875000
vt 0.125000 0.750000
vt 0.125000 0.250000
vt 0.125000 0.125000
vt 0.125000 0.375000
vt 0.156250 1.000000
vt 0.156250 0.000000
vt 0.062500 0.250000
vt 0.062500 0.125000
vt 0.062500 0.500000
vt 0.062500 0.375000
vt 0.062500 0.750000
vt 0.062500 0.625000
vt 0.093750 1.000000
vt 0.062500 0.875000
vt 0.093750 0.000000
vt 0.000000 0.750000
vt 0.000000 0.625000
vt 0.031250 1.000000
vt 0.000000 0.875000
vt 0.031250 0.000000
vt 0.000000 0.125000
vt 0.000000 0.375000
vt 0.000000 0.250000
vt 0.000000 0.500000
vt 0.968750 0.000000
vt 1.000000 0.125000
vt 0.937500 0.125000
vt 1.000000 0.250000
vt 1.000000 0.375000
vt 0.937500 0.375000
vt 0.937500 0.250000
vt 1.000000 0.500000
vt 1.000000 0.625000
vt 0.937500 0.625000
vt 0.937500 0.500000
vt 1.000000 0.750000
vt 1.000000 0.875000
vt 0.937500 0.875000
vt 0.937500 0.750000
vt 0.968750 1.000000
vt 0.875000 0.875000
vt 0.875000 0.750000
vt 0.875000 0.250000
vt 0.875000 0.125000
vt 0.875000 0.500000
vt 0.875000 0.375000
vt 0.875000 0.625000
vt 0.906250 1.000000
vt 0.906250 0.000000
vt 0.812500 0.250000
vt 0.812500 0.125000
vt 0.812500 0.500000
vt 0.812500 0.375000
vt 0.812500 0.750000
vt 0.812500 0.625000
vt 0.843750 1.000000
vt 0.812500 0.875000
vt 0.843750 0.000000
vt 0.781250 1.000000
vt 0.781250 0.000000
s 1
f 3/1/3 2/2/2 8/3/8 9/4/9
f 1/5/1 113/6/113 6/7/6 7/8/7
f 112/9/112 62/10/62 5/11/5
f 61/12/61 4/13/4 11/14/11
f 114/15/114 3/1/3 9/4/9 10/16/10
f 2/2/2 1/5/1 7/8/7 8/3/8
f 113/6/113 112/9/112 5/11/5 6/7/6
f 4/13/4 114/15/114 10/16/10 11/14/11
f 61/17/61 11/14/11 18/18/18
f 10/16/10 9/4/9 16/19/16 17/20/17
f 8/3/8 7/8/7 14/21/14 15/22/15
f 6/7/6 5/11/5 12/23/12 13/24/13
f 11/14/11 10/16/10 17/20/17 18/18/18
f 9/4/9 8/3/8 15/22/15 16/19/16
f 7/8/7 6/7/6 13/24/13 14/21/14
f 5/11/5 62/25/62 12/23/12
f 13/24/13 12/23/12 19/26/19 20/27/20
f 18/18/18 17/20/17 24/28/24 25/29/25
f 16/19/16 15/22/15 22/30/22 23/31/23
f 14/21/14 13/24/13 20/27/20 21/32/21
f 12/23/12 62/33/62 19/26/19
f 61/34/61 18/18/18 25/29/25
f 17/20/17 16/19/16 23/31/23 24/28/24
f 15/22/15 14/21/14 21/32/21 22/30/22
f 25/29/25 24/28/24 31/35/31 32/36/32
f 23/31/23 22/30/22 29/37/29 30/38/30
f 21/32/21 20/27/20 27/39/27 28/40/28
f 19/26/19 62/41/62 26/42/26
f 61/43/61 25/29/25 32/36/32
f 24/28/24 23/31/23 30/38/30 31/35/31
f 22/30/22 21/32/21 28/40/28 29/37/29
f 20/27/20 19/26/19 26/42/26 27/39/27
f 26/42/26 62/44/62 33/45/33
f 61/46/61 32/36/32 39/47/39
f 31/35/31 30/38/30 37/48/37 38/49/38
f 29/37/29 28/40/28 35/50/35 36/51/36
f 27/39/27 26/42/26 33/45/33 34/52/34
f 32/36/32 31/35/31 38/49/38 39/47/39
f 30/38/30 29/37/29 36/51/36 37/48/37
f 28/40/28 27/39/27 34/52/34 35/50/35
f 38/49/38 37/48/37 44/53/44 45/54/45
f 36/51/36 35/50/35 42/55/42 43/56/43
f 34/52/34 33/45/33 40/57/40 41/58/41
f 39/47/39 38/49/38 45/54/45 46/59/46
f 37/48/37 36/51/36 43/56/43 44/53/44
f 35/50/35 34/52/34 41/58/41 42/55/42
f 33/45/33 62/60/62 40/57/40
f 61/61/61 39/47/39 46/59/46
f 46/59/46 45/54/45 52/62/52 53/63/53
f 44/53/44 43/56/43 50/64/50 51/65/51
f 42/55/42 41/58/41 48/66/48 49/67/49
f 40/57/40 62/68/62 47/69/47
f 61/70/61 46/59/46 53/63/53
f 45/54/45 44/53/44 51/65/51 52/62/52
f 43/56/43 42/55/42 49/67/49 50/64/50
f 41/58/41 40/57/40 47/69/47 48/66/48
f 51/65/51 50/64/50 57/71/57 58/72/58
f 49/67/49 48/66/48 55/73/55 56/74/56
f 47/69/47 62/75/62 54/76/54
f 61/77/61 53/63/53 60/78/60
f 52/62/52 51/65/51 58/72/58 59/79/59
f 50/64/50 49/67/49 56/74/56 57/71/57
f 48/66/48 47/69/47 54/76/54 55/73/55
f 53/63/53 52/62/52 59/79/59 60/78/60
f 61/80/61 60/78/60 69/81/69
f 59/79/59 58/72/58 67/82/67 68/83/68
f 57/71/57 56/74/56 65/84/65 66/85/66
f 55/73/55 54/76/54 63/86/63 64/87/64
f 60/78/60 59/79/59 68/83/68 69/81/69
f 58/72/58 57/71/57 66/85/66 67/82/67
f 56/74/56 55/73/55 64/87/64 65/84/65
f 54/76/54 62/88/62 63/86/63
f 66/85/66 65/84/65 72/89/72 73/90/73
f 64/87/64 63/86/63 70/91/70 71/92/71
f 69/81/69 68/83/68 75/93/75 76/94/76
f 67/82/67 66/85/66 73/90/73 74/95/74
f 65/84/65 64/87/64 71/92/71 72/89/72
f 63/86/63 62/96/62 70/91/70
f 61/97/61 69/81/69 76/94/76
f 68/83/68 67/82/67 74/95/74 75/93/75
f 76/94/76 75/93/75 82/98/82 83/99/83
f 74/95/74 73/90/73 80/100/80 81/101/81
f 72/89/72 71/92/71 78/102/78 79/103/79
f 70/91/70 62/104/62 77/105/77
f 61/106/61 76/94/76 83/99/83
f 75/93/75 74/95/74 81/101/81 82/98/82
f 73/90/73 72/89/72 79/103/79 80/100/80
f 71/92/71 70/91/70 77/105/77 78/102/78
f 79/103/79 78/102/78 85/107/85 86/108/86
f 77/105/77 62/109/62 84/110/84
f 61/111/61 83/99/83 90/112/90
f 82/98/82 81/101/81 88/113/88 89/114/89
f 80/100/80 79/103/79 86/108/86 87/115/87
f 78/102/78 77/105/77 84/110/84 85/107/85
f 83/99/83 82/98/82 89/114/89 90/112/90
f 81/101/81 80/100/80 87/115/87 88/113/88
f 61/116/61 90/117/90 97/118/97
f 89/119/89 88/120/88 95/121/95 96/122/96
f 87/123/87 86/124/86 93/125/93 94/126/94
f 85/127/85 84/128/84 91/129/91 92/130/92
f 90/117/90 89/119/89 96/122/96 97/118/97
f 88/120/88 87/123/87 94/126/94 95/121/95
f 86/124/86 85/127/85 92/130/92 93/125/93
f 84/128/84 62/131/62 91/129/91
f 92/130/92 91/129/91 98/132/98 99/133/99
f 97/118/97 96/122/96 103/134/103 104/135/104
f 95/121/95 94/126/94 101/136/101 102/137/102
f 93/125/93 92/130/92 99/133/99 100/138/100
f 91/129/91 62/139/62 98/132/98
f 61/140/61 97/118/97 104/135/104
f 96/122/96 95/121/95 102/137/102 103/134/103
f 94/126/94 93/125/93 100/138/100 101/136/101
f 104/135/104 103/134/103 110/141/110 111/142/111
f 102/137/102 101/136/101 108/143/108 109/144/109
f 100/138/100 99/133/99 106/145/106 107/146/107
f 98/132/98 62/147/62 105/148/105
f 61/149/61 104/135/104 111/142/111
f 103/134/103 102/137/102 109/144/109 110/141/110
f 101/136/101 100/138/100 107/146/107 108/143/108
f 99/133/99 98/132/98 105/148/105 106/145/106
f 105/148/105 62/150/62 112/9/112
f 61/151/61 111/142/111 4/13/4
f 110/141/110 109/144/109 3/1/3 114/15/114
f 108/143/108 107/146/107 1/5/1 2/2/2
f 106/145/106 105/148/105 112/9/112 113/6/113
f 111/142/111 110/141/110 114/15/114 4/13/4
f 109/144/109 108/143/108 2/2/2 3/1/3
f 107/146/107 106/145/106 113/6/113 1/5/1
